<?xml version="1.0" encoding="UTF-8"?>
<!DOCTYPE svg PUBLIC "-//W3C//DTD SVG 1.1//EN" "http://www.w3.org/Graphics/SVG/1.1/DTD/svg11.dtd">
<svg xmlns="http://www.w3.org/2000/svg" version="1.1" width="32px" height="32px" style="shape-rendering:geometricPrecision; text-rendering:geometricPrecision; image-rendering:optimizeQuality; fill-rule:evenodd; clip-rule:evenodd" xmlns:xlink="http://www.w3.org/1999/xlink">
<g><path style="opacity:0.937" fill="#543885" d="M 31.5,4.5 C 31.5,8.16667 31.5,11.8333 31.5,15.5C 29.9582,16.3007 28.2915,16.634 26.5,16.5C 26.5,18.5 26.5,20.5 26.5,22.5C 25.1667,22.5 23.8333,22.5 22.5,22.5C 22.5,23.8333 22.5,25.1667 22.5,26.5C 21.1667,26.5 19.8333,26.5 18.5,26.5C 18.7373,25.209 18.404,24.209 17.5,23.5C 16.1667,23.5 14.8333,23.5 13.5,23.5C 13.5,24.8333 13.5,26.1667 13.5,27.5C 11.8333,27.5 10.1667,27.5 8.5,27.5C 8.5,28.8333 8.5,30.1667 8.5,31.5C 7.16667,31.5 5.83333,31.5 4.5,31.5C 4.5,29.8333 4.5,28.1667 4.5,26.5C 5.5,26.5 6.5,26.5 7.5,26.5C 7.5,25.5 7.5,24.5 7.5,23.5C 6.5,23.5 5.5,23.5 4.5,23.5C 4.5,21.1667 4.5,18.8333 4.5,16.5C 2.70848,16.634 1.04181,16.3007 -0.5,15.5C -0.5,11.8333 -0.5,8.16667 -0.5,4.5C 1.40229,7.33732 2.06896,10.6707 1.5,14.5C 2.5,14.5 3.5,14.5 4.5,14.5C 3.59615,9.19328 5.59615,5.85995 10.5,4.5C 10.5,3.16667 10.5,1.83333 10.5,0.5C 11.5,0.5 12.5,0.5 13.5,0.5C 13.5,1.83333 13.5,3.16667 13.5,4.5C 14.8333,4.5 16.1667,4.5 17.5,4.5C 17.5,3.16667 17.5,1.83333 17.5,0.5C 18.5,0.5 19.5,0.5 20.5,0.5C 20.5,1.83333 20.5,3.16667 20.5,4.5C 25.4038,5.85995 27.4038,9.19328 26.5,14.5C 27.5,14.5 28.5,14.5 29.5,14.5C 28.931,10.6707 29.5977,7.33732 31.5,4.5 Z M 10.5,11.5 C 11.5,11.5 12.5,11.5 13.5,11.5C 13.5,13.5 13.5,15.5 13.5,17.5C 12.5,17.5 11.5,17.5 10.5,17.5C 10.5,15.5 10.5,13.5 10.5,11.5 Z M 17.5,11.5 C 18.5,11.5 19.5,11.5 20.5,11.5C 20.5,13.5 20.5,15.5 20.5,17.5C 19.5,17.5 18.5,17.5 17.5,17.5C 17.5,15.5 17.5,13.5 17.5,11.5 Z"/></g>
<g><path style="opacity:0.384" fill="#533686" d="M 26.5,22.5 C 25.791,23.404 24.791,23.7373 23.5,23.5C 23.2852,25.1788 23.9519,26.1788 25.5,26.5C 24.1938,27.4674 23.5271,28.8007 23.5,30.5C 24.5,30.5 25.5,30.5 26.5,30.5C 26.5,30.8333 26.5,31.1667 26.5,31.5C 25.1667,31.5 23.8333,31.5 22.5,31.5C 22.5,30.1667 22.5,28.8333 22.5,27.5C 20.8333,27.5 19.1667,27.5 17.5,27.5C 17.5,26.1667 17.5,24.8333 17.5,23.5C 18.404,24.209 18.7373,25.209 18.5,26.5C 19.8333,26.5 21.1667,26.5 22.5,26.5C 22.5,25.1667 22.5,23.8333 22.5,22.5C 23.8333,22.5 25.1667,22.5 26.5,22.5 Z"/></g>
<g><path style="opacity:0.829" fill="#543986" d="M 25.5,26.5 C 26.4345,27.5676 26.7678,28.901 26.5,30.5C 25.5,30.5 24.5,30.5 23.5,30.5C 23.5271,28.8007 24.1938,27.4674 25.5,26.5 Z"/></g>
</svg>
